<svg width="1759" height="391" viewBox="0 0 1759 391" fill="none" xmlns="http://www.w3.org/2000/svg">
<path d="M38.1003 364C21.3875 364 19 361.63 19 361.63V332.593C19 332.593 22.2829 333.185 32.1314 333.185C44.3676 333.185 49.4411 326.963 49.4411 316.889V92.5926H81.9713V317.778C81.9713 327.259 84.6572 364 38.1003 364ZM49.4411 46.0741V4H81.9713V46.0741H49.4411Z" fill="white"/>
<path d="M238.63 93H271V281.83H238.63V248.77C238.63 254.131 216.061 286 181.909 286C126.97 286 124 241.622 124 191.883V93H156.37V195.457C156.37 230.602 158.448 255.918 188.442 255.918C213.982 255.918 238.63 235.963 238.63 197.244V93Z" fill="white"/>
<path d="M347.312 283H315V93.4838H347.312V130.849C347.312 125.468 372.213 89 408.083 89C464.111 89 465 136.827 465 183.459V283H432.688V176.883C432.688 147.888 429.427 118.593 397.411 118.593C371.917 118.593 347.312 139.518 347.312 172.997V283Z" fill="white"/>
<path d="M498 241H539V283H498V241Z" fill="white"/>
<path d="M605.518 364H573V93.1398H605.518V129.511C605.518 124.188 628.788 89 666.08 89C725.747 89 752 132.172 752 182.737C752 233.301 726.94 285.048 666.08 285.048C628.788 285.048 605.518 250.156 605.518 246.903V364ZM717.095 182.441C717.095 150.21 703.372 113.543 662.5 113.543C633.263 113.543 603.43 141.043 603.43 185.989C603.43 235.962 635.948 259.027 665.483 259.027C703.372 259.027 717.095 214.968 717.095 182.441Z" fill="white"/>
<path d="M779 4H813V283H779V4Z" fill="white"/>
<path d="M962.18 241.133C962.18 254.504 934.45 286 894.92 286C859.815 286 843 260.149 843 231.03C843 170.118 930.91 171.009 960.115 169.226V150.507C960.705 122.279 938.875 113.662 920.585 113.662C894.035 113.662 880.465 129.41 880.465 151.695H845.065C845.065 126.736 861.29 89 920.585 89C961 89 992.27 109.205 992.27 150.804V237.864C992.27 253.315 1001.42 255.098 1007.02 255.098C1015.87 255.098 1020 254.504 1020 254.504V283.623C1020 283.623 1016.76 286 999.94 286C967.785 285.703 962.18 257.772 962.18 241.133ZM959.82 209.339V188.837C930.32 190.026 874.86 195.077 874.86 231.03C874.86 254.207 891.675 259.852 908.195 259.852C935.335 259.852 959.82 234.299 959.82 209.339Z" fill="white"/>
<path d="M1077.98 282.641L1013 93H1047.44L1095.05 241.813L1142.66 93H1175L1107.03 295.658C1097.74 324.356 1088.46 364 1043.54 364C1024.08 364 1018.99 361.929 1018.99 361.929V330.273C1018.99 330.273 1029.17 331.752 1039.95 331.752C1062.41 331.752 1068.7 320.214 1075.58 293.587L1077.98 282.641Z" fill="white"/>
<path d="M1192 4H1224V283H1192V4Z" fill="white"/>
<path d="M1269 46.463V4H1303V46.463H1269ZM1303 283H1269V93.4116H1303V283Z" fill="white"/>
<path d="M1410.62 261.041C1422.85 261.041 1450.58 255.395 1450.58 232.219C1450.58 183.489 1336.07 217.065 1336.07 146.347C1336.07 114.554 1365.29 89 1403.17 89C1458.93 89 1473.54 129.113 1475.63 144.267H1441.93C1440.74 132.084 1432.09 113.959 1403.17 113.959C1384.38 113.959 1366.49 123.765 1366.49 140.998C1366.49 185.271 1481 152.884 1481 226.87C1481 260.149 1450.88 286 1410.62 286C1345.02 286 1331 242.618 1331 223.305H1364.7C1364.7 236.973 1374.54 261.041 1410.62 261.041Z" fill="white"/>
<path d="M1514.13 121.562H1485V93.364H1514.13V34H1544.44V93.364H1580.11V121.562H1544.44V240.883C1544.44 249.788 1549.5 256.021 1561.68 256.021C1572.98 256.021 1581 253.943 1581 253.943V283.032C1581 283.032 1573.57 286 1555.44 286C1510.26 286 1513.83 249.194 1513.83 239.993L1514.13 121.562Z" fill="white"/>
<path d="M1607 70.2052C1607 42.4978 1622.78 3 1672.5 3C1722.22 3 1738 42.7926 1738 70.2052C1738 97.6179 1722.52 138 1672.5 138C1622.48 138 1607 97.9127 1607 70.2052ZM1727.28 70.2052C1727.28 38.0764 1707.33 11.8428 1672.5 11.8428C1637.67 11.8428 1617.72 38.3712 1617.72 70.2052C1617.72 102.039 1637.67 129.157 1672.5 129.157C1707.04 129.157 1727.28 102.039 1727.28 70.2052ZM1647.49 99.6812V37.4869H1674.29C1695.13 37.4869 1700.19 45.4454 1700.19 56.3515C1700.19 65.7838 1696.32 72.8581 1682.62 74.6266L1700.78 99.3865H1689.47L1671.61 74.9214H1657.02V99.3865L1647.49 99.6812ZM1673.99 66.3734C1687.68 66.3734 1690.36 62.5415 1690.36 56.3515C1690.36 50.1616 1687.68 46.3297 1673.99 46.3297H1657.02V66.6681H1673.99V66.3734Z" fill="white"/>
</svg>
